<svg width="132" height="25" viewBox="0 0 132 25" fill="none" xmlns="http://www.w3.org/2000/svg">
<path d="M125.004 21.1817C125.004 19.2502 126.572 17.6831 128.502 17.6831C130.434 17.6831 132 19.2502 132 21.1817C132 23.1132 130.434 24.6793 128.502 24.6793C126.572 24.6793 125.004 23.1132 125.004 21.1817Z" fill="#86BC24"/>
<path d="M13.4275 11.9163C13.4275 9.70035 12.9994 8.05634 12.1429 6.9853C11.2855 5.91528 9.98657 5.38076 8.24035 5.38076H6.38278V18.9318H7.80399C9.7436 18.9318 11.165 18.3567 12.07 17.2027C12.9739 16.0507 13.4275 14.2882 13.4275 11.9163ZM20.0521 11.6855C20.0521 15.7227 18.9669 18.8335 16.7965 21.0171C14.626 23.2017 11.575 24.294 7.64205 24.294H0V0.102539H8.1755C11.9677 0.102539 14.8953 1.09562 16.9584 3.08079C19.0205 5.06697 20.0521 7.93387 20.0521 11.6855Z" fill="#0F0B0B"/>
<path d="M41.2206 24.2937H47.3016V0.000976562H41.2206V24.2937Z" fill="#0F0B0B"/>
<path d="M55.8442 15.2324C55.8442 16.7813 56.0467 17.9626 56.4506 18.7745C56.8556 19.5874 57.5337 19.9934 58.4874 19.9934C59.4308 19.9934 60.098 19.5874 60.4867 18.7745C60.8754 17.9626 61.0688 16.7813 61.0688 15.2324C61.0688 13.6917 60.8723 12.5295 60.4786 11.745C60.0838 10.9584 59.4107 10.5646 58.4561 10.5646C57.5228 10.5646 56.8556 10.9564 56.4506 11.7359C56.0467 12.5164 55.8442 13.6816 55.8442 15.2324ZM67.2582 15.2324C67.2582 18.1834 66.4847 20.4854 64.9338 22.1355C63.384 23.7866 61.2146 24.6126 58.4257 24.6126C55.7511 24.6126 53.6221 23.7683 52.0419 22.0798C50.4597 20.3912 49.6691 18.1095 49.6691 15.2324C49.6691 12.2906 50.4436 10.0048 51.9944 8.37493C53.5452 6.74509 55.7197 5.93018 58.5198 5.93018C60.2499 5.93018 61.7805 6.30779 63.1067 7.06197C64.4338 7.81615 65.4583 8.8963 66.178 10.3034C66.8988 11.7085 67.2582 13.3525 67.2582 15.2324Z" fill="#0F0B0B"/>
<path d="M69.6731 24.2937H75.7551V14.9965V6.24902H69.6731V24.2937Z" fill="#0F0B0B"/>
<path d="M69.673 4.0665H75.755V0H69.673V4.0665Z" fill="#0F0B0B"/>
<path d="M88.0769 19.6914C88.898 19.6914 89.8758 19.4829 91.0166 19.0688V23.609C90.1966 23.9694 89.4172 24.2276 88.6762 24.3804C87.9352 24.5353 87.0655 24.6123 86.0705 24.6123C84.0286 24.6123 82.5567 24.099 81.6526 23.0746C80.7527 22.0501 80.3012 20.477 80.3012 18.3541V10.9156H78.1714V6.25076H80.3012V1.64266L86.4299 0.57666V6.25076H90.3102V10.9156H86.4299V17.939C86.4299 19.1073 86.9796 19.6914 88.0769 19.6914Z" fill="#0F0B0B"/>
<path d="M102.153 19.6914C102.974 19.6914 103.952 19.4829 105.093 19.0688V23.609C104.274 23.9694 103.493 24.2276 102.752 24.3804C102.01 24.5353 101.144 24.6123 100.147 24.6123C98.1048 24.6123 96.633 24.099 95.731 23.0746C94.8291 22.0501 94.3776 20.477 94.3776 18.3541V10.9156H92.2466V6.25076H94.3776V1.57282L100.505 0.57666V6.25076H104.387V10.9156H100.505V17.939C100.505 19.1073 101.055 19.6914 102.153 19.6914Z" fill="#0F0B0B"/>
<path d="M112.767 13.0341C112.85 12.0461 113.132 11.3223 113.614 10.8597C114.098 10.398 114.695 10.1672 115.41 10.1672C116.19 10.1672 116.809 10.4264 117.269 10.9487C117.731 11.4681 117.972 12.1635 117.992 13.0341H112.767ZM121.343 8.05758C119.898 6.64033 117.847 5.93066 115.193 5.93066C112.404 5.93066 110.258 6.74557 108.754 8.37542C107.251 10.0053 106.499 12.3438 106.499 15.3908C106.499 18.3418 107.312 20.6174 108.933 22.2149C110.556 23.8123 112.835 24.6121 115.769 24.6121C117.179 24.6121 118.391 24.5159 119.408 24.3246C120.418 24.1353 121.396 23.7931 122.345 23.2991L121.41 19.2326C120.721 19.514 120.065 19.7307 119.445 19.8734C118.55 20.0809 117.568 20.1852 116.499 20.1852C115.327 20.1852 114.402 19.8987 113.724 19.3257C113.045 18.7517 112.684 17.9601 112.642 16.9518H123.513V14.1811C123.513 11.5157 122.79 9.47382 121.343 8.05758Z" fill="#0F0B0B"/>
<path d="M28.123 13.0341C28.206 12.0461 28.4885 11.3223 28.9703 10.8597C29.4532 10.398 30.0516 10.1672 30.7673 10.1672C31.5448 10.1672 32.1643 10.4264 32.6249 10.9487C33.0875 11.4681 33.3275 12.1635 33.3488 13.0341H28.123ZM36.7005 8.05758C35.2539 6.64033 33.2039 5.93066 30.5496 5.93066C27.7596 5.93066 25.6145 6.74557 24.1111 8.37542C22.6079 10.0053 21.8547 12.3438 21.8547 15.3908C21.8547 18.3418 22.6667 20.6174 24.2904 22.2149C25.9122 23.8123 28.1908 24.6121 31.1256 24.6121C32.5348 24.6121 33.7475 24.5159 34.7638 24.3246C35.7741 24.1353 36.7522 23.7931 37.7018 23.2991L36.7663 19.2326C36.0769 19.514 35.4209 19.7307 34.8024 19.8734C33.9055 20.0809 32.9245 20.1852 31.8554 20.1852C30.6842 20.1852 29.7581 19.8987 29.0798 19.3257C28.4005 18.7517 28.0401 17.9601 27.9987 16.9518H38.8689V14.1811C38.8689 11.5157 38.1461 9.47382 36.7005 8.05758Z" fill="#0F0B0B"/>
</svg>
