<svg width="294" height="74" viewBox="0 0 294 74" fill="none" xmlns="http://www.w3.org/2000/svg">
<path d="M293.493 63.2279L293.476 27.1392C291.097 24.8546 288.564 23.24 286.217 22.1028V22.1081C285.864 21.9341 285.494 21.765 285.115 21.5989C285.012 21.5538 284.908 21.5084 284.805 21.4651C284.482 21.3278 284.149 21.1944 283.807 21.0645C283.667 21.011 283.529 20.9612 283.391 20.9109C283.019 20.7762 282.64 20.645 282.248 20.5218C282.2 20.5068 282.153 20.4922 282.106 20.4776C279.627 19.7149 276.752 19.2062 273.484 19.2062C261.739 19.2062 250.06 27.821 250.06 41.9312C250.06 54.2565 259.779 64.2489 271.768 64.2489C277.318 64.2489 282.379 62.1047 286.217 58.5819V63.2336L293.493 63.2279ZM285.887 42.6581C285.441 50.6295 278.9 56.902 271.032 56.5191C262.491 56.1039 256.237 47.7518 257.749 39.0119C259.03 31.6088 265.444 26.7161 273.849 26.7161C278.167 26.7161 282.532 28.1028 285.887 30.7103V42.6581Z" fill="#242D53"/>
<path d="M139.634 36.2916C124.655 32.6167 114.217 37.1951 109.962 39.3785L120.149 19.692C120.448 19.1837 120.924 19.1082 121.181 19.1082C121.438 19.1082 121.914 19.1837 122.213 19.6916L127.931 31.1259C127.931 31.1259 131.978 30.8198 137.325 31.8602L129.066 15.9681C127.47 13.1497 124.774 11.176 121.181 11.176C117.043 11.176 114.018 13.8196 113.003 15.7703C111.989 17.7209 88.3447 63.8793 88.3447 63.8793H97.719C100.945 54.614 111.519 40.159 133.769 42.4633L144.798 63.8793H154.008L139.634 36.2916Z" fill="#242D53"/>
<path d="M231.794 3.30615H231.292V63.8792H239.21V10.6694C239.21 6.6095 235.883 3.30615 231.794 3.30615Z" fill="#242D53"/>
<path d="M188.175 19.2119L168.67 35.9811V3.2951H168.319C164.246 3.2951 160.933 6.59808 160.933 10.658V63.8793H168.67V45.3127L172.868 41.743L188.881 63.8793H198.461L178.768 36.602L198.184 19.2167L188.175 19.2119Z" fill="#242D53"/>
<rect x="208.391" y="19.2121" width="7.79913" height="44.6674" fill="#242D53"/>
<path d="M212.241 3.94476C211.026 3.94476 209.974 4.37982 209.114 5.237C208.253 6.09503 207.817 7.14386 207.817 8.3548C207.817 9.56586 208.253 10.6204 209.113 11.4901C209.973 12.36 211.026 12.8012 212.241 12.8012C213.455 12.8012 214.514 12.36 215.386 11.4904C216.259 10.6209 216.702 9.56586 216.702 8.3548C216.702 7.14386 216.259 6.09454 215.385 5.23651C214.513 4.37933 213.455 3.94476 212.241 3.94476Z" fill="#242D53"/>
<path d="M71.4548 14.7037C62.5364 6.6037 49.8896 0.706238 35.9033 0.706238C21.6891 0.706238 8.92761 6.60333 0 14.7037V59.5089C8.94135 67.8433 21.7272 73.2939 35.9426 73.2939C50.0212 73.2939 62.5306 67.8936 71.4548 59.5089V14.7037Z" fill="#F4F4F4"/>
<path d="M15.179 29.5319C15.179 29.2894 15.179 29.0426 15.1785 28.7855L15.179 28.7816V26.2497C15.179 24.1502 13.4738 22.3161 11.2193 22.1871C8.77118 22.0507 6.73511 23.8547 6.73511 26.0983V26.5606V28.6221V28.7816C6.73511 28.812 6.73688 28.8411 6.73779 28.8712C6.73779 28.9962 6.73828 29.1212 6.74792 29.2435C6.81354 30.2212 6.9389 31.1915 7.10193 31.7829C8.16296 35.6485 11.4975 36.8462 15.1852 36.7627C15.1932 36.6187 15.179 29.5319 15.179 29.5319Z" fill="#11D348"/>
<path d="M64.6603 44.9912C64.6603 44.8662 64.6598 44.7412 64.6501 44.6184C64.585 43.6411 64.4592 42.6708 64.2961 42.0795C63.2356 38.2138 59.9006 37.0166 56.2129 37.0996C56.2049 37.2441 56.219 44.3305 56.219 44.3305C56.219 44.5728 56.2195 44.8198 56.2195 45.0769L56.219 45.0813V47.6127C56.219 49.7122 57.9242 51.5463 60.1788 51.6753C62.6269 51.8117 64.6629 50.0077 64.6629 47.7641V47.3017V45.2402V45.0813C64.6629 45.0504 64.6612 45.0212 64.6603 44.9912Z" fill="#385AEA"/>
<path d="M39.9125 39.1753C39.9169 31.6945 39.9138 23.0465 39.9147 18.5198C39.9147 18.3983 39.9042 18.2774 39.8966 18.1255C36.2276 18.038 32.9382 19.3082 31.8784 23.4025C31.5493 24.6748 31.4625 25.9679 31.4629 27.2725C31.4638 28.7516 31.4691 31.7594 31.4727 35.1004H31.4629C31.4585 42.5494 31.4851 51.1607 31.4842 55.6684C31.4842 55.789 31.4953 55.91 31.5023 56.061C35.1625 56.1485 38.4439 54.8833 39.5005 50.8066C39.8289 49.5395 39.9156 48.2517 39.9147 46.9528C39.9143 45.4827 39.9133 42.4951 39.9125 39.1753Z" fill="#242D53"/>
<path d="M27.5617 27.9637V23.9536C27.5617 21.8095 25.6691 20.0717 23.334 20.0717C20.9992 20.0717 19.1067 21.8095 19.1067 23.9536V27.5914V27.9133V28.3063C19.1067 29.7147 19.108 31.525 19.1077 32.5027C19.1072 33.7331 19.194 34.9523 19.5232 36.1518C20.5829 40.0126 23.8882 41.2104 27.559 41.1277C27.5657 40.9944 27.5648 32.4368 27.5617 27.9637Z" fill="#242D53"/>
<path d="M52.283 45.9529C52.2825 44.5556 52.2817 42.794 52.2822 41.8339C52.2825 40.6039 52.1958 39.3846 51.867 38.1851C50.8091 34.3244 47.5095 33.1267 43.8453 33.2093C43.8387 33.3422 43.8391 41.9001 43.8423 46.373V50.3057C43.8423 52.4494 45.7317 54.1876 48.0625 54.1876C50.3936 54.1876 52.283 52.4494 52.283 50.3057V45.9529Z" fill="#242D53"/>
</svg>
