<svg width="158" height="28" viewBox="0 0 158 28" fill="none" xmlns="http://www.w3.org/2000/svg">
<path d="M145.959 7.26225L149.444 16.9503H142.367L145.959 7.26225ZM142.227 3.49004L134.196 24.1672H139.867L141.138 20.5136H150.642L151.844 24.1672H158L149.909 3.48736L142.227 3.49004ZM126.104 24.1749H131.857V3.48369L126.103 3.48235L126.104 24.1749ZM86.1626 3.48235L81.3624 19.8818L76.7641 3.48369L70.5562 3.48235L77.1235 24.1749H85.4122L92.0324 3.48235H86.1626ZM109.419 7.98803H111.891C115.479 7.98803 117.799 9.6247 117.799 13.8721C117.799 18.1205 115.479 19.7575 111.891 19.7575H109.419V7.98803ZM103.714 3.48235V24.1749H113.041C118.011 24.1749 119.633 23.3355 121.388 21.4523C122.627 20.13 123.429 17.2283 123.429 14.0562C123.429 11.1468 122.751 8.55341 121.568 6.93746C119.437 4.0474 116.367 3.48235 111.785 3.48235H103.714ZM49.2131 3.45361V24.1749H55.0153V8.44114L59.511 8.44248C60.9995 8.44248 62.0607 8.8194 62.7775 9.59763C63.6867 10.5817 64.0579 12.1703 64.0579 15.076V24.1749H69.6802V12.7263C69.6802 4.55531 64.5551 3.45361 59.5405 3.45361H49.2131ZM94.4539 3.48235L94.4562 24.1749H100.207V3.48235H94.4539Z" fill="black"/>
<path d="M4.23419 11.8939C4.23419 11.8939 7.98119 6.32404 15.4627 5.74782V3.72709C7.17598 4.39759 0 11.4686 0 11.4686C0 11.4686 4.06436 23.306 15.4627 24.3898V22.2419C7.09806 21.1817 4.23419 11.8939 4.23419 11.8939ZM15.4627 17.9703V19.9374C9.14089 18.8019 7.38611 12.1811 7.38611 12.1811C7.38611 12.1811 10.4215 8.79334 15.4627 8.24395V10.4024C15.4589 10.4024 15.4562 10.4012 15.453 10.4012C12.8071 10.0813 10.7402 12.5716 10.7402 12.5716C10.7402 12.5716 11.8987 16.7639 15.4627 17.9703ZM15.4627 0V3.72709C15.706 3.7083 15.9492 3.69237 16.1938 3.68398C25.6149 3.36408 31.7534 11.4686 31.7534 11.4686C31.7534 11.4686 24.7032 20.1058 17.358 20.1058C16.6848 20.1058 16.0546 20.0429 15.4627 19.9372V22.2419C15.9689 22.3067 16.4937 22.3448 17.0413 22.3448C23.8765 22.3448 28.8195 18.8279 33.6058 14.6655C34.3993 15.3058 37.6482 16.8635 38.316 17.5454C33.7651 21.3841 23.159 24.4784 17.1461 24.4784C16.5665 24.4784 16.0098 24.443 15.4627 24.3898V27.6284H41.4426V0H15.4627ZM15.4627 8.24395V5.74782C15.7035 5.73088 15.9461 5.71796 16.1938 5.71007C22.9685 5.49569 27.4132 11.5755 27.4132 11.5755C27.4132 11.5755 22.6125 18.2927 17.4652 18.2927C16.7245 18.2927 16.0605 18.1728 15.4627 17.9703V10.4024C18.1001 10.7235 18.6308 11.8972 20.2164 14.5603L23.7429 11.5644C23.7429 11.5644 21.1686 8.16293 16.829 8.16293C16.3573 8.16276 15.9059 8.19614 15.4627 8.24395Z" fill="#77B900"/>
</svg>
