<svg width="76" height="47" viewBox="0 0 76 47" fill="none" xmlns="http://www.w3.org/2000/svg">
<g clip-path="url(#clip0_26_34)">
<mask id="mask0_26_34" style="mask-type:luminance" maskUnits="userSpaceOnUse" x="0" y="0" width="76" height="47">
<path fill-rule="evenodd" clip-rule="evenodd" d="M0 0.333496H75.6588V46.9998H0V0.333496Z" fill="white"/>
</mask>
<g mask="url(#mask0_26_34)">
<path fill-rule="evenodd" clip-rule="evenodd" d="M60.8134 40.472C60.8056 40.4782 60.7978 40.4839 60.7901 40.4901L60.5843 40.2432C56.3428 43.7362 50.9551 45.6255 45.3952 45.6255C39.0329 45.6255 33.0718 43.2207 28.6012 38.8115C24.1307 34.4601 21.6656 28.6197 21.6656 22.4354C21.6656 17.6832 23.0987 13.0452 25.9071 9.15142C28.6586 5.31498 32.4416 2.45211 36.9121 0.791617L36.7405 0.333496C32.212 2.05132 28.3148 4.97152 25.5633 8.86529C22.6975 12.8732 21.1501 17.5686 21.1501 22.4354C21.1501 28.7339 23.6721 34.6889 28.2574 39.155C28.6886 39.5754 29.1374 39.9715 29.5939 40.3558L29.0024 41.0448C33.5304 44.8812 39.3767 46.9998 45.3952 46.9998C51.2989 46.9998 56.973 44.9386 61.5015 41.2741L60.8134 40.472Z" fill="#004B86"/>
</g>
<path fill-rule="evenodd" clip-rule="evenodd" d="M26.1365 8.12104C26.0223 7.72025 25.9649 7.37679 25.9649 6.976C25.9649 5.25817 27.1111 3.71182 29.1745 3.71182C29.633 3.71182 30.0342 3.76915 30.3781 3.88381C30.7219 3.59768 31.1231 3.31103 31.5243 3.08223C30.8366 2.68144 30.0342 2.45264 29.1745 2.45264C26.6525 2.45264 24.5317 4.45659 24.5317 6.976C24.5317 7.83491 24.8187 8.69382 25.2194 9.38075C25.3341 9.20927 25.4489 9.03728 25.5632 8.92263C25.7353 8.63598 25.9649 8.35036 26.1365 8.12104Z" fill="#141414"/>
<path fill-rule="evenodd" clip-rule="evenodd" d="M32.3268 3.65479C31.9256 3.88359 31.5818 4.11291 31.238 4.39904C31.983 4.97182 32.3842 5.94487 32.3842 6.97577C32.3842 8.6936 31.1232 10.1821 29.1746 10.1821C28.0853 10.1821 27.2255 9.72398 26.6526 8.97973C26.5379 9.15172 26.4231 9.26638 26.3083 9.43785C26.1367 9.66717 25.965 9.89597 25.8497 10.1248C26.71 10.9269 27.8562 11.4423 29.1746 11.4423C31.7534 11.4423 33.8173 9.49518 33.8173 6.97577C33.8173 5.65874 33.244 4.45637 32.3268 3.65479Z" fill="#141414"/>
<path fill-rule="evenodd" clip-rule="evenodd" d="M24.1306 18.6566C24.1306 20.0309 23.3282 21.2333 22.1246 21.6914V22.4357V23.0658C24.0732 22.5503 25.5632 20.8325 25.5632 18.6566C25.5632 17.1107 24.704 15.7364 23.443 14.8774C23.2708 15.3356 23.1561 15.7364 22.9844 16.1371C23.7294 16.7673 24.1306 17.6835 24.1306 18.6566Z" fill="#141414"/>
<path fill-rule="evenodd" clip-rule="evenodd" d="M21.2072 21.9201H20.9208C18.9722 21.9201 17.6533 20.4316 17.6533 18.6565C17.6533 16.996 18.8 15.4502 20.9208 15.4502C21.3794 15.4502 21.838 15.507 22.1813 15.679C22.2966 15.2777 22.4108 14.8774 22.583 14.4766C22.067 14.3046 21.4936 14.1899 20.9208 14.1899C18.3414 14.1899 16.2781 16.1944 16.2781 18.6565C16.2781 21.2332 18.3414 23.1799 20.9208 23.1799H21.2072C21.2072 22.9511 21.1498 22.6644 21.1498 22.4356C21.1498 22.2636 21.2072 22.0921 21.2072 21.9201Z" fill="#141414"/>
<path fill-rule="evenodd" clip-rule="evenodd" d="M24.2452 27.2455C26.3086 27.2455 27.4548 28.7914 27.4548 30.4519C27.4548 31.9404 26.5381 33.2574 25.105 33.6014C25.334 34.0022 25.5636 34.3456 25.7926 34.7464C27.5695 34.1168 28.8879 32.5132 28.8879 30.4519C28.8879 27.9898 26.7671 25.9858 24.2452 25.9858C23.615 25.9858 22.9842 26.1005 22.4688 26.3293C22.5256 26.7301 22.583 27.1882 22.6978 27.589C23.1564 27.3602 23.6718 27.2455 24.2452 27.2455Z" fill="#141414"/>
<path fill-rule="evenodd" clip-rule="evenodd" d="M21.0352 30.4516C21.0352 29.5926 21.3221 28.7911 21.8949 28.1615C21.7802 27.7033 21.6659 27.2452 21.6085 26.7871C20.4049 27.5887 19.6025 28.9631 19.6025 30.4516C19.6025 33.0288 21.6659 34.9749 24.2453 34.9749C24.4169 34.9749 24.6465 34.9749 24.8186 34.9181C24.5891 34.5173 24.3026 34.1165 24.0731 33.7157C22.2393 33.6011 21.0352 32.2267 21.0352 30.4516Z" fill="#141414"/>
<path fill-rule="evenodd" clip-rule="evenodd" d="M46.7708 26.1577V31.3685C46.7708 32.5709 46.3696 33.7159 44.8222 33.7159C43.2743 33.7159 42.8731 32.5709 42.8731 31.3685V26.1577H41.4404V31.6546C41.4404 33.5439 42.644 34.9756 44.8222 34.9756C47.0003 34.9756 48.2034 33.5439 48.2034 31.6546V26.1577H46.7708Z" fill="#141414"/>
<path fill-rule="evenodd" clip-rule="evenodd" d="M47.9172 10.0676H51.8149V11.27H46.484V2.62402H47.9172V10.0676Z" fill="#141414"/>
<path fill-rule="evenodd" clip-rule="evenodd" d="M0 14.3623H5.04392V15.6215H1.43263V17.6833H4.98653V18.943H1.43263V21.7485H5.04392V23.0082H0V14.3623Z" fill="#141414"/>
<path fill-rule="evenodd" clip-rule="evenodd" d="M28.4867 13.9038L34.4478 20.0303V14.3619H35.8804V23.3513L29.9193 17.3395V23.0079H28.4867V13.9038Z" fill="#141414"/>
<mask id="mask1_26_34" style="mask-type:luminance" maskUnits="userSpaceOnUse" x="0" y="0" width="76" height="47">
<path fill-rule="evenodd" clip-rule="evenodd" d="M0 0.333496H75.6588V46.9998H0V0.333496Z" fill="white"/>
</mask>
<g mask="url(#mask1_26_34)">
<path fill-rule="evenodd" clip-rule="evenodd" d="M64.0236 14.3623H65.4567V23.0082H64.0236V14.3623Z" fill="#141414"/>
</g>
<mask id="mask2_26_34" style="mask-type:luminance" maskUnits="userSpaceOnUse" x="0" y="0" width="76" height="47">
<path fill-rule="evenodd" clip-rule="evenodd" d="M0 0.333496H75.6588V46.9998H0V0.333496Z" fill="white"/>
</mask>
<g mask="url(#mask2_26_34)">
<path fill-rule="evenodd" clip-rule="evenodd" d="M13.928 27.4169V29.4782H17.0228V30.6811H13.928V34.8032H12.4954V26.1572H17.1381V27.4169H13.928Z" fill="#141414"/>
</g>
<mask id="mask3_26_34" style="mask-type:luminance" maskUnits="userSpaceOnUse" x="0" y="0" width="76" height="47">
<path fill-rule="evenodd" clip-rule="evenodd" d="M0 0.333496H75.6588V46.9998H0V0.333496Z" fill="white"/>
</mask>
<g mask="url(#mask3_26_34)">
<path fill-rule="evenodd" clip-rule="evenodd" d="M19.6598 8.00641H19.7172L21.0925 2.62414H22.4687L20.061 11.614L17.0231 5.14354L13.9857 11.614L11.5211 2.62414H12.9537L14.3295 8.00641L17.0231 2.45215L19.6598 8.00641Z" fill="#141414"/>
</g>
<mask id="mask4_26_34" style="mask-type:luminance" maskUnits="userSpaceOnUse" x="0" y="0" width="76" height="47">
<path fill-rule="evenodd" clip-rule="evenodd" d="M0 0.333496H75.6588V46.9998H0V0.333496Z" fill="white"/>
</mask>
<g mask="url(#mask4_26_34)">
<path fill-rule="evenodd" clip-rule="evenodd" d="M52.7891 17.6257H52.7317L51.356 23.0079H49.9807L52.3879 14.0186L55.4258 20.5459L58.4638 14.0186L60.9283 23.0079H59.4952L58.1194 17.6257H58.062L55.4258 23.2373L52.7891 17.6257Z" fill="#141414"/>
</g>
<mask id="mask5_26_34" style="mask-type:luminance" maskUnits="userSpaceOnUse" x="0" y="0" width="76" height="47">
<path fill-rule="evenodd" clip-rule="evenodd" d="M0 0.333496H75.6588V46.9998H0V0.333496Z" fill="white"/>
</mask>
<g mask="url(#mask5_26_34)">
<path fill-rule="evenodd" clip-rule="evenodd" d="M53.5342 29.4211L52.1585 34.8034H50.7258L53.133 25.8135L56.2283 32.284L59.2663 25.8135L61.6729 34.8034H60.2403L58.8646 29.4211L56.2283 34.9754L53.5342 29.4211Z" fill="#141414"/>
</g>
<mask id="mask6_26_34" style="mask-type:luminance" maskUnits="userSpaceOnUse" x="0" y="0" width="76" height="47">
<path fill-rule="evenodd" clip-rule="evenodd" d="M0 0.333496H75.6588V46.9998H0V0.333496Z" fill="white"/>
</mask>
<g mask="url(#mask6_26_34)">
<path fill-rule="evenodd" clip-rule="evenodd" d="M34.2757 26.1577C35.0781 26.1577 35.9953 26.1577 36.6829 26.5585C37.4284 26.9593 37.8865 27.8182 37.8865 28.6198C37.8865 29.8795 37.0272 30.9104 35.7657 31.0245L38.5172 34.8036H36.9124L34.3331 31.1392H33.3585V34.8036H31.9259V26.1577H34.2757ZM33.3585 29.9942H33.9893C35.1355 29.9942 36.5112 30.051 36.5112 28.6771C36.5112 27.3028 35.0781 27.3601 33.9319 27.3601H33.3585V29.9942Z" fill="#141414"/>
</g>
<mask id="mask7_26_34" style="mask-type:luminance" maskUnits="userSpaceOnUse" x="0" y="0" width="76" height="47">
<path fill-rule="evenodd" clip-rule="evenodd" d="M0 0.333496H75.6588V46.9998H0V0.333496Z" fill="white"/>
</mask>
<g mask="url(#mask7_26_34)">
<path fill-rule="evenodd" clip-rule="evenodd" d="M39.1475 2.62402C39.9499 2.62402 40.8671 2.62402 41.5547 3.02481C42.3002 3.42561 42.7009 4.28452 42.7009 5.0861C42.7009 6.34632 41.899 7.37671 40.5807 7.49085L43.389 11.27H41.7843L39.1475 7.60551H38.2304V11.27H36.7977V2.62402H39.1475ZM38.2304 6.46046H38.8611C40.0073 6.46046 41.3257 6.51779 41.3257 5.14343C41.3257 3.76907 39.8925 3.82691 38.8037 3.82691H38.2304V6.46046Z" fill="#141414"/>
</g>
<mask id="mask8_26_34" style="mask-type:luminance" maskUnits="userSpaceOnUse" x="0" y="0" width="76" height="47">
<path fill-rule="evenodd" clip-rule="evenodd" d="M0 0.333496H75.6588V46.9998H0V0.333496Z" fill="white"/>
</mask>
<g mask="url(#mask8_26_34)">
<path fill-rule="evenodd" clip-rule="evenodd" d="M55.7696 10.0676H56.572C58.4637 10.0676 60.2401 9.38014 60.2401 6.91807C60.2401 4.39866 58.4637 3.8264 56.572 3.8264H55.7696V10.0676ZM54.3364 2.62402H56.6862C59.4377 2.62402 61.6733 3.94054 61.6733 6.91807C61.6733 9.89559 59.4951 11.27 56.6862 11.27H54.3364V2.62402Z" fill="#141414"/>
</g>
<mask id="mask9_26_34" style="mask-type:luminance" maskUnits="userSpaceOnUse" x="0" y="0" width="76" height="47">
<path fill-rule="evenodd" clip-rule="evenodd" d="M0 0.333496H75.6588V46.9998H0V0.333496Z" fill="white"/>
</mask>
<g mask="url(#mask9_26_34)">
<path fill-rule="evenodd" clip-rule="evenodd" d="M74.9135 21.5194C74.4549 21.8055 73.939 21.9202 73.3087 21.9202C71.417 21.9202 70.0992 20.4885 70.0992 18.7133C70.0992 16.996 71.2454 15.4496 73.3087 15.4496C73.939 15.4496 74.4549 15.5643 74.9135 15.7931L75.6011 14.7627C74.9709 14.4193 74.1685 14.1899 73.3087 14.1899C70.7868 14.1899 68.666 16.1944 68.666 18.7133C68.666 21.2332 70.7868 23.1799 73.3087 23.1799C74.1685 23.1799 74.9709 23.0079 75.6585 22.6071L74.9135 21.5194Z" fill="#141414"/>
</g>
<mask id="mask10_26_34" style="mask-type:luminance" maskUnits="userSpaceOnUse" x="0" y="0" width="76" height="47">
<path fill-rule="evenodd" clip-rule="evenodd" d="M0 0.333496H75.6588V46.9998H0V0.333496Z" fill="white"/>
</mask>
<g mask="url(#mask10_26_34)">
<path fill-rule="evenodd" clip-rule="evenodd" d="M13.9854 21.5194C13.5268 21.8055 13.0109 21.9202 12.438 21.9202C10.4889 21.9202 9.17053 20.4885 9.17053 18.7133C9.17053 16.996 10.3167 15.4496 12.438 15.4496C13.0109 15.4496 13.5268 15.5643 13.9854 15.7931L14.7304 14.7627C14.0428 14.4193 13.2399 14.1899 12.438 14.1899C9.85866 14.1899 7.79529 16.1944 7.79529 18.7133C7.79529 21.2332 9.85866 23.1799 12.438 23.1799C13.2399 23.1799 14.0428 23.0079 14.7304 22.6071L13.9854 21.5194Z" fill="#141414"/>
</g>
<mask id="mask11_26_34" style="mask-type:luminance" maskUnits="userSpaceOnUse" x="0" y="0" width="76" height="47">
<path fill-rule="evenodd" clip-rule="evenodd" d="M0 0.333496H75.6588V46.9998H0V0.333496Z" fill="white"/>
</mask>
<g mask="url(#mask11_26_34)">
<path fill-rule="evenodd" clip-rule="evenodd" d="M46.7135 18.7138C46.7135 16.996 45.5673 15.4501 43.5039 15.4501C41.3832 15.4501 40.2364 16.996 40.2364 18.7138C40.2364 20.4889 41.5548 21.9201 43.5039 21.9201C45.3951 21.9201 46.7135 20.4889 46.7135 18.7138ZM48.1467 18.7138C48.1467 21.2332 46.0254 23.1803 43.5039 23.1803C40.9246 23.1803 38.8612 21.2332 38.8612 18.7138C38.8612 16.1944 40.9246 14.1904 43.5039 14.1904C46.0254 14.1904 48.1467 16.1944 48.1467 18.7138Z" fill="#141414"/>
</g>
</g>
<defs>
<clipPath id="clip0_26_34">
<rect width="76" height="47" fill="white"/>
</clipPath>
</defs>
</svg>
